<svg width="174" height="192" viewBox="0 0 174 192" fill="none" xmlns="http://www.w3.org/2000/svg">
<path d="M173.552 84.9173C173.552 131.816 134.701 169.835 86.7759 169.835C38.8509 169.835 0 131.816 0 84.9173C0 38.0188 38.8509 0 86.7759 0C134.701 0 173.552 38.0188 173.552 84.9173Z" fill="#A8D140"/>
<path d="M48.8935 75.4545L46.4787 90H44.1349L38.929 80.0923H38.8153L37.1605 90H34.5256L36.9403 75.4545H39.2983L44.4972 85.3693H44.6321L46.2727 75.4545H48.8935ZM54.3995 75.4545L51.9847 90H49.3498L51.7646 75.4545H54.3995ZM67.9879 75.4545L65.5732 90H62.9382L64.9268 78.0185H64.8416L61.0774 80.1918L61.4751 77.777L65.4808 75.4545H67.9879ZM71.8533 88.0114L71.619 88.7926C71.458 89.3892 71.2402 89.9953 70.9656 90.6108C70.6957 91.2311 70.4281 91.8016 70.163 92.3224C69.8978 92.8433 69.6848 93.2528 69.5238 93.5511H67.7908C67.8997 93.2718 68.0513 92.8812 68.2454 92.3793C68.4442 91.8821 68.6478 91.3234 68.8562 90.7031C69.0692 90.0829 69.2468 89.4508 69.3888 88.8068L69.5806 88.0114H71.8533ZM79.016 90.1989C77.9506 90.1989 77.0344 90.0166 76.2674 89.652C75.5004 89.2874 74.9322 88.7902 74.5629 88.1605C74.1983 87.5308 74.0823 86.8229 74.2148 86.0369C74.319 85.4403 74.5463 84.8911 74.8967 84.3892C75.247 83.8826 75.6755 83.4612 76.1822 83.125C76.6935 82.7888 77.2404 82.5734 77.8228 82.4787V82.4006C77.1078 82.2301 76.5752 81.8348 76.2248 81.2145C75.8744 80.5942 75.7702 79.884 75.9123 79.0838C76.0449 78.3404 76.3645 77.6823 76.8711 77.1094C77.3825 76.5317 78.024 76.0795 78.7958 75.7528C79.5676 75.4214 80.4175 75.2557 81.3455 75.2557C82.2925 75.2557 83.1093 75.4285 83.7958 75.7741C84.4824 76.1198 84.9914 76.5909 85.3228 77.1875C85.6542 77.7841 85.7584 78.4612 85.6353 79.2188C85.498 80.0331 85.1405 80.7268 84.5629 81.2997C83.9899 81.8726 83.3223 82.2396 82.56 82.4006V82.4787C83.1093 82.5781 83.5875 82.803 83.9947 83.1534C84.4066 83.5038 84.7073 83.9394 84.8967 84.4602C85.0861 84.9811 85.1263 85.5516 85.0174 86.1719C84.8896 86.9484 84.5463 87.6397 83.9876 88.2457C83.4289 88.8518 82.7186 89.33 81.8569 89.6804C80.9999 90.026 80.0529 90.1989 79.016 90.1989ZM79.229 88.1676C79.7925 88.1676 80.2944 88.0705 80.7347 87.8764C81.1798 87.6776 81.5444 87.4053 81.8285 87.0597C82.1126 86.7093 82.2925 86.3045 82.3683 85.8452C82.4393 85.3859 82.3896 84.9834 82.2191 84.6378C82.0487 84.2874 81.7788 84.0175 81.4094 83.8281C81.0449 83.634 80.6093 83.5369 80.1026 83.5369C79.5723 83.5369 79.0823 83.6411 78.6325 83.8494C78.1826 84.0578 77.8086 84.3466 77.5103 84.7159C77.212 85.0852 77.025 85.5066 76.9492 85.9801C76.8782 86.4205 76.9232 86.8063 77.0842 87.1378C77.2499 87.4645 77.515 87.7178 77.8796 87.8977C78.2489 88.0777 78.6987 88.1676 79.229 88.1676ZM80.3228 81.5412C80.7868 81.5412 81.2106 81.4465 81.5941 81.2571C81.9776 81.0677 82.2972 80.8073 82.5529 80.4759C82.8086 80.1397 82.9743 79.7585 83.0501 79.3324C83.1211 78.9157 83.088 78.5559 82.9506 78.2528C82.8181 77.9498 82.5955 77.7178 82.283 77.5568C81.9753 77.3958 81.5965 77.3153 81.1467 77.3153C80.6732 77.3153 80.2423 77.4053 79.854 77.5852C79.4705 77.7652 79.1509 78.0185 78.8952 78.3452C78.6443 78.6671 78.4833 79.0436 78.4123 79.4744C78.3413 79.8911 78.3768 80.2557 78.5188 80.5682C78.6656 80.8759 78.8929 81.1151 79.2006 81.2855C79.5131 81.456 79.8872 81.5412 80.3228 81.5412ZM99.9197 87.2727L100.062 86.5057C100.166 85.9422 100.374 85.4238 100.687 84.9503C101.004 84.4768 101.414 84.0956 101.915 83.8068C102.417 83.518 102.997 83.3736 103.656 83.3736C104.328 83.3736 104.87 83.518 105.282 83.8068C105.694 84.0909 105.978 84.4697 106.134 84.9432C106.295 85.4167 106.321 85.9375 106.212 86.5057L106.07 87.2727C105.971 87.8314 105.763 88.3499 105.445 88.8281C105.133 89.3016 104.726 89.6828 104.224 89.9716C103.722 90.2604 103.142 90.4048 102.484 90.4048C101.816 90.4048 101.274 90.2604 100.857 89.9716C100.445 89.6828 100.159 89.3016 99.9979 88.8281C99.8416 88.3499 99.8156 87.8314 99.9197 87.2727ZM101.915 86.5057L101.773 87.2727C101.707 87.642 101.738 87.9853 101.866 88.3026C101.998 88.6151 102.292 88.7713 102.746 88.7713C103.201 88.7713 103.54 88.6151 103.762 88.3026C103.985 87.9901 104.131 87.6468 104.202 87.2727L104.344 86.5057C104.415 86.1269 104.392 85.7812 104.273 85.4688C104.155 85.1515 103.862 84.9929 103.393 84.9929C102.943 84.9929 102.602 85.1515 102.37 85.4688C102.138 85.7812 101.987 86.1269 101.915 86.5057ZM93.9183 78.9489L94.032 78.1818C94.1172 77.6136 94.3184 77.0928 94.6357 76.6193C94.9576 76.1458 95.3719 75.767 95.8786 75.483C96.3899 75.1941 96.9723 75.0497 97.6257 75.0497C98.2981 75.0497 98.8355 75.1941 99.2379 75.483C99.6451 75.767 99.9268 76.1458 100.083 76.6193C100.239 77.0928 100.272 77.6136 100.183 78.1818L100.069 78.9489C99.9884 79.517 99.7895 80.0379 99.4723 80.5114C99.1551 80.9848 98.7408 81.3636 98.2294 81.6477C97.7228 81.9271 97.1404 82.0668 96.4822 82.0668C95.8146 82.0668 95.2772 81.9271 94.87 81.6477C94.4628 81.3636 94.1811 80.9848 94.0249 80.5114C93.8733 80.0331 93.8378 79.5123 93.9183 78.9489ZM95.8999 78.1818L95.7862 78.9489C95.7294 79.3277 95.7625 79.6733 95.8857 79.9858C96.0088 80.2936 96.2952 80.4474 96.745 80.4474C97.2043 80.4474 97.5476 80.2936 97.7749 79.9858C98.0021 79.6733 98.1442 79.3277 98.201 78.9489L98.3146 78.1818C98.3714 77.803 98.343 77.4574 98.2294 77.1449C98.1205 76.8277 97.8317 76.669 97.3629 76.669C96.9131 76.669 96.5698 76.8277 96.3331 77.1449C96.1011 77.4621 95.9567 77.8078 95.8999 78.1818ZM92.8388 90L105.254 75.4545H107.129L94.7138 90H92.8388ZM121.266 85.4119L122.324 79.0909H124.895L123.077 90H120.584L120.911 88.0611H120.797C120.456 88.6719 119.968 89.1714 119.334 89.5597C118.704 89.9479 117.98 90.142 117.161 90.142C116.446 90.142 115.842 89.9834 115.349 89.6662C114.857 89.3442 114.507 88.8778 114.298 88.267C114.095 87.6515 114.064 86.9081 114.206 86.0369L115.371 79.0909H117.942L116.848 85.6392C116.739 86.3305 116.839 86.8797 117.146 87.2869C117.459 87.6941 117.923 87.8977 118.538 87.8977C118.917 87.8977 119.298 87.8054 119.682 87.6207C120.07 87.4361 120.409 87.1615 120.697 86.7969C120.986 86.4276 121.176 85.9659 121.266 85.4119ZM125.046 94.0909L127.56 79.0909H130.088L129.797 80.8949H129.946C130.117 80.6297 130.346 80.348 130.635 80.0497C130.929 79.7467 131.301 79.4886 131.75 79.2756C132.2 79.0578 132.747 78.9489 133.391 78.9489C134.229 78.9489 134.951 79.1643 135.557 79.5952C136.163 80.0213 136.596 80.6534 136.857 81.4915C137.122 82.3248 137.155 83.3475 136.956 84.5597C136.757 85.7576 136.391 86.7756 135.855 87.6136C135.32 88.4517 134.679 89.0909 133.931 89.5312C133.183 89.9716 132.38 90.1918 131.523 90.1918C130.898 90.1918 130.394 90.0876 130.01 89.8793C129.632 89.6709 129.345 89.42 129.151 89.1264C128.957 88.8281 128.812 88.5464 128.718 88.2812H128.604L127.638 94.0909H125.046ZM129.172 84.5455C129.059 85.2509 129.056 85.8688 129.165 86.3991C129.279 86.9295 129.504 87.3437 129.84 87.642C130.176 87.9356 130.616 88.0824 131.161 88.0824C131.729 88.0824 132.226 87.9309 132.652 87.6278C133.083 87.3201 133.441 86.901 133.725 86.3707C134.014 85.8357 134.217 85.2273 134.336 84.5455C134.444 83.8684 134.444 83.267 134.336 82.7415C134.227 82.2159 134.007 81.804 133.675 81.5057C133.344 81.2074 132.894 81.0582 132.326 81.0582C131.772 81.0582 131.277 81.2027 130.841 81.4915C130.41 81.7803 130.053 82.1851 129.769 82.706C129.485 83.2268 129.286 83.84 129.172 84.5455Z" fill="black"/>
<path d="M86.5949 191.52L68.7612 158.556L103.83 158.252L86.5949 191.52Z" fill="#A8D140"/>
</svg>
