<svg width="128" height="148" viewBox="0 0 128 148" fill="none" xmlns="http://www.w3.org/2000/svg">
<path d="M127.457 62.9006C127.457 97.2928 98.9662 125.173 63.8212 125.173C28.6762 125.173 0.185547 97.2928 0.185547 62.9006C0.185547 28.5083 28.6762 0.62793 63.8212 0.62793C98.9662 0.62793 127.457 28.5083 127.457 62.9006Z" fill="#A8D140" fill-opacity="0.72"/>
<path d="M35.9148 55.3636L33.983 67H32.108L27.9432 59.0739H27.8523L26.5284 67H24.4205L26.3523 55.3636H28.2386L32.3977 63.2955H32.5057L33.8182 55.3636H35.9148ZM40.3196 55.3636L38.3878 67H36.2798L38.2116 55.3636H40.3196ZM51.1903 55.3636L49.2585 67H47.1506L48.7415 57.4148H48.6733L45.6619 59.1534L45.9801 57.2216L49.1847 55.3636H51.1903ZM54.2827 65.4091L54.0952 66.0341C53.9664 66.5114 53.7921 66.9962 53.5724 67.4886C53.3565 67.9848 53.1425 68.4413 52.9304 68.858C52.7183 69.2746 52.5478 69.6023 52.419 69.8409H51.0327C51.1198 69.6174 51.241 69.3049 51.3963 68.9034C51.5554 68.5057 51.7183 68.0587 51.8849 67.5625C52.0554 67.0663 52.1974 66.5606 52.3111 66.0455L52.4645 65.4091H54.2827ZM60.1847 67.1591C59.6127 67.1553 59.071 67.0549 58.5597 66.858C58.0521 66.661 57.6184 66.3409 57.2585 65.8977C56.8987 65.4508 56.6506 64.858 56.5142 64.1193C56.3816 63.3807 56.4063 62.4716 56.5881 61.392C56.7547 60.4072 57.0047 59.5341 57.3381 58.7727C57.6714 58.0076 58.0767 57.3598 58.554 56.8295C59.0313 56.2955 59.5672 55.892 60.1619 55.6193C60.7566 55.3428 61.3987 55.2045 62.0881 55.2045C62.8191 55.2045 63.4498 55.3485 63.9801 55.6364C64.5104 55.9205 64.9138 56.3106 65.1903 56.8068C65.4706 57.2992 65.6013 57.8598 65.5824 58.4886H63.5483C63.5369 58.0379 63.3968 57.6818 63.1278 57.4205C62.8589 57.1591 62.4744 57.0284 61.9744 57.0284C61.16 57.0284 60.4631 57.3807 59.8835 58.0852C59.304 58.786 58.9025 59.7689 58.679 61.0341L58.7699 60.9148C59.0123 60.5814 59.2964 60.2992 59.6222 60.0682C59.9479 59.8371 60.3002 59.661 60.679 59.5398C61.0616 59.4186 61.4555 59.358 61.8608 59.358C62.5616 59.358 63.1638 59.5284 63.6676 59.8693C64.1714 60.2064 64.5369 60.6686 64.7642 61.2557C64.9953 61.8428 65.0464 62.5133 64.9176 63.267C64.7926 64.0133 64.5104 64.6818 64.071 65.2727C63.6354 65.8598 63.0843 66.322 62.4176 66.6591C61.7509 66.9962 61.0066 67.1629 60.1847 67.1591ZM60.2585 65.4545C60.6828 65.4545 61.0824 65.3504 61.4574 65.142C61.8362 64.9299 62.1544 64.6439 62.4119 64.2841C62.6733 63.9242 62.8381 63.5227 62.9062 63.0795C62.9669 62.6818 62.9366 62.3239 62.8153 62.0057C62.6941 61.6837 62.4972 61.4299 62.2244 61.2443C61.9517 61.0587 61.6165 60.9659 61.2188 60.9659C60.9006 60.9659 60.5919 61.0284 60.2926 61.1534C59.9934 61.2784 59.7206 61.4508 59.4744 61.6705C59.232 61.8864 59.0294 62.1364 58.8665 62.4205C58.7036 62.7045 58.5956 63.0076 58.5426 63.3295C58.482 63.7197 58.5123 64.0758 58.6335 64.3977C58.7585 64.7159 58.9593 64.9716 59.2358 65.1648C59.5161 65.358 59.857 65.4545 60.2585 65.4545ZM76.767 64.8182L76.8807 64.2045C76.964 63.7538 77.1307 63.339 77.3807 62.9602C77.6345 62.5814 77.9621 62.2765 78.3636 62.0455C78.7652 61.8144 79.2292 61.6989 79.7557 61.6989C80.2936 61.6989 80.7273 61.8144 81.0568 62.0455C81.3864 62.2727 81.6136 62.5758 81.7386 62.9545C81.8674 63.3333 81.8883 63.75 81.8011 64.2045L81.6875 64.8182C81.608 65.2652 81.4413 65.6799 81.1875 66.0625C80.9375 66.4413 80.6117 66.7462 80.2102 66.9773C79.8087 67.2083 79.3447 67.3239 78.8182 67.3239C78.2841 67.3239 77.8504 67.2083 77.517 66.9773C77.1875 66.7462 76.9583 66.4413 76.8295 66.0625C76.7045 65.6799 76.6837 65.2652 76.767 64.8182ZM78.3636 64.2045L78.25 64.8182C78.197 65.1136 78.2216 65.3883 78.3239 65.642C78.4299 65.892 78.6648 66.017 79.0284 66.017C79.392 66.017 79.6629 65.892 79.8409 65.642C80.0189 65.392 80.1364 65.1174 80.1932 64.8182L80.3068 64.2045C80.3636 63.9015 80.3447 63.625 80.25 63.375C80.1553 63.1212 79.9205 62.9943 79.5455 62.9943C79.1856 62.9943 78.9129 63.1212 78.7273 63.375C78.5417 63.625 78.4205 63.9015 78.3636 64.2045ZM71.9659 58.1591L72.0568 57.5455C72.125 57.0909 72.286 56.6742 72.5398 56.2955C72.7973 55.9167 73.1288 55.6136 73.5341 55.3864C73.9432 55.1553 74.4091 55.0398 74.9318 55.0398C75.4697 55.0398 75.8996 55.1553 76.2216 55.3864C76.5473 55.6136 76.7727 55.9167 76.8977 56.2955C77.0227 56.6742 77.0492 57.0909 76.9773 57.5455L76.8864 58.1591C76.822 58.6136 76.6629 59.0303 76.4091 59.4091C76.1553 59.7879 75.8239 60.0909 75.4148 60.3182C75.0095 60.5417 74.5436 60.6534 74.017 60.6534C73.483 60.6534 73.053 60.5417 72.7273 60.3182C72.4015 60.0909 72.1761 59.7879 72.0511 59.4091C71.9299 59.0265 71.9015 58.6098 71.9659 58.1591ZM73.5511 57.5455L73.4602 58.1591C73.4148 58.4621 73.4413 58.7386 73.5398 58.9886C73.6383 59.2348 73.8674 59.358 74.2273 59.358C74.5947 59.358 74.8693 59.2348 75.0511 58.9886C75.233 58.7386 75.3466 58.4621 75.392 58.1591L75.483 57.5455C75.5284 57.2424 75.5057 56.9659 75.4148 56.7159C75.3277 56.4621 75.0966 56.3352 74.7216 56.3352C74.3617 56.3352 74.0871 56.4621 73.8977 56.7159C73.7121 56.9697 73.5966 57.2462 73.5511 57.5455ZM71.1023 67L81.0341 55.3636H82.5341L72.6023 67H71.1023ZM93.8438 63.3295L94.6903 58.2727H96.7472L95.2926 67H93.2983L93.5597 65.4489H93.4688C93.196 65.9375 92.8059 66.3371 92.2983 66.6477C91.7945 66.9583 91.215 67.1136 90.5597 67.1136C89.9877 67.1136 89.5047 66.9867 89.1108 66.733C88.7169 66.4754 88.4366 66.1023 88.2699 65.6136C88.107 65.1212 88.0824 64.5265 88.196 63.8295L89.1278 58.2727H91.1847L90.3097 63.5114C90.2225 64.0644 90.3021 64.5038 90.5483 64.8295C90.7983 65.1553 91.1695 65.3182 91.6619 65.3182C91.965 65.3182 92.2699 65.2443 92.5767 65.0966C92.8873 64.9489 93.1581 64.7292 93.3892 64.4375C93.6203 64.142 93.7718 63.7727 93.8438 63.3295ZM96.8679 70.2727L98.8793 58.2727H100.902L100.669 59.7159H100.788C100.925 59.5038 101.108 59.2784 101.339 59.0398C101.574 58.7973 101.872 58.5909 102.232 58.4205C102.591 58.2462 103.029 58.1591 103.544 58.1591C104.214 58.1591 104.792 58.3314 105.277 58.6761C105.762 59.017 106.108 59.5227 106.317 60.1932C106.529 60.8598 106.555 61.678 106.396 62.6477C106.237 63.6061 105.944 64.4205 105.516 65.0909C105.088 65.7614 104.574 66.2727 103.976 66.625C103.377 66.9773 102.735 67.1534 102.05 67.1534C101.55 67.1534 101.146 67.0701 100.839 66.9034C100.536 66.7367 100.307 66.536 100.152 66.3011C99.9967 66.0625 99.8812 65.8371 99.8054 65.625H99.7145L98.9418 70.2727H96.8679ZM100.169 62.6364C100.078 63.2008 100.076 63.6951 100.163 64.1193C100.254 64.5436 100.434 64.875 100.703 65.1136C100.972 65.3485 101.324 65.4659 101.76 65.4659C102.214 65.4659 102.612 65.3447 102.953 65.1023C103.298 64.8561 103.584 64.5208 103.811 64.0966C104.042 63.6686 104.205 63.1818 104.3 62.6364C104.387 62.0947 104.387 61.6136 104.3 61.1932C104.213 60.7727 104.036 60.4432 103.771 60.2045C103.506 59.9659 103.146 59.8466 102.692 59.8466C102.249 59.8466 101.853 59.9621 101.504 60.1932C101.16 60.4242 100.874 60.7481 100.646 61.1648C100.419 61.5814 100.26 62.072 100.169 62.6364Z" fill="black"/>
<path d="M63.6398 146.859L45.8061 113.895L80.8748 113.591L63.6398 146.859Z" fill="#C0DD75"/>
</svg>
