<svg width="152" height="168" viewBox="0 0 152 168" fill="none" xmlns="http://www.w3.org/2000/svg">
<path d="M151.197 73.5901C151.197 114.235 117.526 147.185 75.9909 147.185C34.4559 147.185 0.785156 114.235 0.785156 73.5901C0.785156 32.9447 34.4559 -0.00488281 75.9909 -0.00488281C117.526 -0.00488281 151.197 32.9447 151.197 73.5901Z" fill="#A8D140" fill-opacity="0.87"/>
<path d="M44.4425 65.9091L42.2692 79H39.8786L35.5639 70.7607H35.4616L34.0874 79H31.3196L33.4929 65.9091H35.9219L40.2173 74.142H40.326L41.6875 65.9091H44.4425ZM49.497 65.9091L47.3237 79H44.5559L46.7292 65.9091H49.497ZM61.5588 65.9091L59.3855 79H56.6177L58.3564 68.5362H58.2797L54.9686 70.4155L55.3777 67.9609L58.9572 65.9091H61.5588ZM65.0856 77.2102L64.8874 77.9134C64.7383 78.4759 64.5401 79.0362 64.293 79.5945C64.0501 80.1527 63.8072 80.6598 63.5643 81.1158C63.3214 81.576 63.1296 81.9361 62.989 82.196H61.2248C61.3185 81.9531 61.457 81.6058 61.6403 81.1541C61.8278 80.7067 62.0174 80.2017 62.2092 79.6392C62.4052 79.0767 62.5607 78.5057 62.6758 77.9261L62.8356 77.2102H65.0856ZM67.2685 79L74.4723 68.2614L74.4979 68.1719H68.1825L68.5469 65.9091H77.7322L77.3551 68.2038L70.1257 79H67.2685ZM89.1964 76.5455L89.3242 75.8551C89.4222 75.331 89.6183 74.8494 89.9123 74.4105C90.2106 73.9673 90.5941 73.6136 91.0629 73.3494C91.5316 73.081 92.0728 72.9467 92.6864 72.9467C93.3129 72.9467 93.82 73.0788 94.2077 73.343C94.5998 73.6072 94.8683 73.9609 95.0131 74.4041C95.1623 74.843 95.1879 75.3267 95.0898 75.8551L94.962 76.5455C94.864 77.0653 94.668 77.5469 94.3739 77.9901C94.0799 78.4332 93.6985 78.7869 93.2298 79.0511C92.761 79.3196 92.2156 79.4538 91.5934 79.4538C90.9712 79.4538 90.4663 79.3196 90.0785 79.0511C89.6907 78.7869 89.4222 78.4332 89.2731 77.9901C89.1282 77.5469 89.1026 77.0653 89.1964 76.5455ZM91.1843 75.8551L91.0565 76.5455C91.0011 76.848 91.0245 77.1335 91.1268 77.402C91.2333 77.6705 91.4805 77.8047 91.8683 77.8047C92.2603 77.8047 92.5479 77.6726 92.7312 77.4084C92.9144 77.1442 93.0337 76.8565 93.0891 76.5455L93.217 75.8551C93.2724 75.544 93.2532 75.2543 93.1594 74.9858C93.0657 74.7173 92.8164 74.5831 92.4116 74.5831C92.0323 74.5831 91.7468 74.7173 91.555 74.9858C91.3633 75.2543 91.2397 75.544 91.1843 75.8551ZM83.7312 69.054L83.8335 68.3636C83.9144 67.831 84.104 67.3452 84.4023 66.9062C84.7006 66.4673 85.0884 66.1158 85.5657 65.8516C86.043 65.5874 86.5863 65.4553 87.1957 65.4553C87.8221 65.4553 88.3249 65.5874 88.7042 65.8516C89.0877 66.1158 89.3519 66.4673 89.4968 66.9062C89.6417 67.3452 89.6758 67.831 89.5991 68.3636L89.4968 69.054C89.4201 69.5824 89.2326 70.0661 88.9343 70.505C88.6403 70.9439 88.2546 71.2955 87.7773 71.5597C87.3001 71.8196 86.7504 71.9496 86.1282 71.9496C85.506 71.9496 85.0053 71.8175 84.6261 71.5533C84.2468 71.2891 83.9826 70.9375 83.8335 70.4986C83.6886 70.0597 83.6545 69.5781 83.7312 69.054ZM85.7063 68.3636L85.604 69.054C85.5572 69.3693 85.5827 69.6591 85.6808 69.9233C85.783 70.1832 86.0238 70.3132 86.4031 70.3132C86.7908 70.3132 87.0785 70.1832 87.266 69.9233C87.4577 69.6591 87.5771 69.3693 87.6239 69.054L87.7262 68.3636C87.7731 68.0526 87.7518 67.7628 87.6623 67.4943C87.5728 67.2259 87.3256 67.0916 86.9208 67.0916C86.5415 67.0916 86.2539 67.228 86.0579 67.5007C85.8661 67.7734 85.7489 68.0611 85.7063 68.3636ZM82.8874 79L94.0607 65.9091H95.8249L84.6516 79H82.8874ZM108.275 74.8196L109.215 69.1818H111.938L110.301 79H107.687L107.981 77.2166H107.879C107.576 77.7919 107.135 78.2543 106.556 78.6037C105.976 78.9531 105.318 79.1278 104.58 79.1278C103.924 79.1278 103.37 78.9787 102.919 78.6804C102.471 78.3821 102.154 77.9581 101.966 77.4084C101.779 76.8587 101.747 76.2003 101.87 75.4332L102.919 69.1818H105.642L104.683 74.9474C104.593 75.527 104.674 75.9851 104.926 76.3217C105.177 76.6584 105.561 76.8267 106.076 76.8267C106.404 76.8267 106.722 76.7521 107.029 76.603C107.34 76.4496 107.608 76.2237 107.834 75.9254C108.06 75.6271 108.207 75.2585 108.275 74.8196ZM111.885 82.6818L114.148 69.1818H116.832L116.558 70.831H116.679C116.841 70.5668 117.056 70.2983 117.325 70.0256C117.597 69.7486 117.936 69.5185 118.341 69.3352C118.746 69.1477 119.221 69.054 119.766 69.054C120.487 69.054 121.115 69.2415 121.652 69.6165C122.189 69.9872 122.577 70.5476 122.815 71.2976C123.058 72.0433 123.086 72.9787 122.898 74.1037C122.719 75.1989 122.389 76.1236 121.908 76.8778C121.43 77.6278 120.857 78.1967 120.188 78.5845C119.523 78.968 118.818 79.1598 118.072 79.1598C117.544 79.1598 117.109 79.0724 116.768 78.8977C116.432 78.723 116.17 78.5036 115.982 78.2393C115.795 77.9709 115.663 77.7003 115.586 77.4276H115.484L114.614 82.6818H111.885ZM115.995 74.0909C115.901 74.6747 115.897 75.1839 115.982 75.6186C116.072 76.0533 116.251 76.392 116.519 76.6349C116.788 76.8736 117.141 76.9929 117.58 76.9929C118.023 76.9929 118.418 76.8714 118.763 76.6286C119.108 76.3814 119.396 76.0405 119.626 75.6058C119.856 75.1669 120.02 74.6619 120.118 74.0909C120.207 73.5241 120.21 73.0256 120.124 72.5952C120.039 72.1648 119.864 71.8281 119.6 71.5852C119.336 71.3423 118.978 71.2209 118.526 71.2209C118.087 71.2209 117.693 71.3381 117.344 71.5724C116.999 71.8068 116.711 72.1392 116.481 72.5696C116.251 73 116.089 73.5071 115.995 74.0909Z" fill="black"/>
<path d="M75.8117 167.739L57.978 134.774L93.0467 134.471L75.8117 167.739Z" fill="#B3D759"/>
</svg>
